<?xml version="1.0" standalone="no"?>
<!DOCTYPE svg PUBLIC "-//W3C//DTD SVG 20010904//EN"
 "http://www.w3.org/TR/2001/REC-SVG-20010904/DTD/svg10.dtd">
<svg version="1.0" xmlns="http://www.w3.org/2000/svg"
 width="256.000000pt" height="256.000000pt" viewBox="0 0 256.000000 256.000000"
 preserveAspectRatio="xMidYMid meet">
<metadata>
Created by potrace 1.11, written by Peter Selinger 2001-2013
</metadata>
<g transform="translate(0.000000,256.000000) scale(0.100000,-0.100000)"
fill="#000000" stroke="none">
<path d="M0 1280 l0 -1280 1280 0 1280 0 0 1280 0 1280 -1280 0 -1280 0 0
-1280z m1124 625 c8 -55 18 -165 21 -245 l6 -145 -36 -22 -36 -23 -31 23 -31
22 6 160 c6 152 25 303 49 390 l11 40 13 -50 c8 -27 20 -95 28 -150z m396 30
c10 -60 21 -180 25 -265 l6 -155 -33 -20 c-33 -21 -33 -21 -67 -1 l-34 20 6
160 c6 154 25 305 49 391 l11 40 9 -30 c5 -16 17 -79 28 -140z m-200 -178 c5
-45 13 -127 17 -182 4 -55 8 -89 10 -75 20 138 35 154 48 48 6 -50 5 -57 -13
-67 -24 -13 -32 -39 -21 -69 7 -19 12 -21 29 -12 23 12 27 1 10 -31 -13 -24
-36 -25 -49 -1 -9 15 -10 13 -11 -10 0 -17 -7 -29 -19 -33 -11 -3 -23 -15 -26
-26 -6 -18 -9 -17 -36 12 -16 17 -29 40 -29 52 0 19 -1 19 -20 2 -16 -15 -22
-15 -35 -5 -8 7 -15 21 -15 32 0 15 3 17 19 9 24 -13 31 -5 31 35 0 23 -6 37
-20 44 -21 11 -26 48 -14 109 10 49 20 37 36 -41 l14 -73 7 134 c7 118 26 247
43 291 10 24 32 -51 44 -143z m-257 -301 l21 -24 19 24 c23 30 61 31 81 2 23
-32 20 -38 -18 -38 -43 0 -65 -24 -48 -51 7 -10 12 -27 12 -37 0 -23 55 -89
80 -97 11 -4 20 -15 20 -25 0 -39 -76 11 -121 79 -30 46 -40 41 -15 -7 20 -39
65 -78 109 -97 27 -11 37 -21 33 -31 -4 -9 -2 -12 5 -8 12 7 4 87 -12 117 -5
9 -21 17 -35 17 -30 0 -28 19 3 31 26 9 61 -13 74 -50 l11 -26 13 32 c16 38
42 54 73 42 28 -11 28 -27 0 -31 -12 -2 -28 -14 -35 -28 -15 -29 -17 -110 -3
-110 5 0 7 7 4 15 -4 10 3 18 22 26 47 17 93 58 115 101 11 22 18 42 16 45 -3
3 -11 -6 -17 -19 -18 -33 -70 -87 -102 -104 -57 -30 -51 -11 17 58 31 31 55
64 55 76 0 11 5 24 10 27 27 16 -9 55 -51 55 -33 0 -38 19 -13 44 26 27 62 20
84 -16 11 -18 20 -27 20 -19 0 40 69 68 98 39 23 -23 14 -48 -16 -48 -16 0
-37 -9 -47 -20 -16 -17 -16 -24 -6 -44 16 -30 1 -82 -36 -127 l-26 -30 22 -29
c26 -36 27 -66 2 -80 -41 -21 -53 -13 -46 30 6 36 5 40 -13 40 -37 0 -72 -19
-72 -39 0 -10 -9 -21 -20 -24 -28 -7 -25 -26 5 -37 25 -10 34 -34 15 -43 -6
-3 -5 -4 2 -3 7 2 13 15 13 29 -1 23 3 27 28 27 15 0 37 -5 49 -11 31 -17 78
32 77 80 -1 81 30 121 66 85 23 -24 14 -60 -35 -137 -25 -40 -40 -76 -40 -96
0 -22 25 -75 77 -164 75 -130 99 -167 89 -137 -3 8 -21 66 -41 128 -24 75 -41
112 -51 112 -25 0 -54 38 -54 73 0 23 12 51 39 89 52 72 59 100 35 144 -17 30
-17 36 -4 44 23 15 66 12 80 -5 10 -12 10 -25 -2 -68 -26 -91 -29 -89 202
-219 24 -14 8 5 -50 61 -74 70 -89 80 -112 75 -27 -5 -28 -4 -27 33 1 21 5 52
9 68 6 25 8 20 9 -27 1 -46 4 -56 16 -52 9 4 58 -33 134 -102 66 -60 119 -110
117 -111 -1 -2 -67 19 -147 46 -101 33 -145 53 -147 64 -4 20 -11 21 -46 7
-58 -22 -87 -82 -46 -95 15 -5 32 -43 75 -178 30 -94 54 -172 52 -173 -1 -1
-57 59 -125 133 -111 123 -122 139 -117 164 l7 29 -55 0 c-39 0 -62 -6 -78
-19 -23 -18 -23 -20 -6 -38 9 -11 17 -28 17 -39 0 -29 -73 -375 -78 -369 -2 2
-22 89 -43 192 l-38 187 22 24 22 23 -25 19 c-18 14 -42 20 -84 20 -51 0 -57
-2 -51 -17 4 -10 8 -23 9 -30 1 -12 -234 -277 -240 -270 -2 2 20 77 49 168 42
132 57 166 75 174 12 5 22 14 22 20 0 19 -31 55 -60 70 -37 19 -48 19 -52 -2
-2 -12 -45 -30 -148 -64 -79 -26 -146 -46 -148 -45 -2 2 50 51 115 110 87 78
122 104 136 100 17 -5 18 -1 12 50 -5 35 -4 56 2 56 6 0 13 -21 16 -47 4 -27
9 -57 12 -69 6 -18 -9 -30 -104 -88 -61 -37 -111 -69 -111 -72 0 -2 44 12 98
31 53 19 99 35 101 35 2 0 1 8 -2 19 -2 11 3 25 14 35 22 18 24 57 7 120 -14
53 -1 76 42 76 40 0 56 -23 36 -52 -25 -36 -20 -80 15 -124 38 -48 54 -79 64
-122 6 -29 -3 -50 -70 -169 -42 -74 -75 -137 -73 -138 2 -2 39 39 83 91 l80
95 -3 72 c-3 64 -7 79 -47 146 -49 82 -57 124 -26 141 29 15 51 2 53 -31 1
-16 2 -42 3 -57 2 -32 29 -78 51 -86 9 -3 24 -1 34 4 31 17 70 12 71 -7 0 -11
3 -13 6 -5 2 6 13 12 24 12 26 0 24 30 -2 37 -14 4 -19 12 -16 24 4 13 -3 21
-26 28 -54 19 -60 16 -53 -29 6 -36 4 -40 -16 -40 -24 0 -58 27 -58 46 0 7 11
25 24 41 l24 29 -29 38 c-34 46 -47 100 -29 121 19 23 -12 65 -50 65 -36 0
-43 11 -24 38 20 29 60 28 87 -2z"/>
<path d="M1081 1778 c-1 -153 3 -278 7 -278 5 0 17 9 27 20 16 17 18 36 16
133 -2 117 -26 344 -41 381 -5 12 -9 -93 -9 -256z"/>
<path d="M1481 1778 c-1 -153 2 -278 6 -278 4 0 17 9 29 21 20 19 21 27 17
127 -4 123 -30 354 -43 386 -5 12 -9 -90 -9 -256z"/>
<path d="M1281 1597 c-1 -275 -1 -277 19 -265 19 12 20 24 20 163 0 146 -13
295 -30 352 -5 17 -9 -81 -9 -250z"/>
<path d="M1200 1019 c0 -5 8 -9 19 -9 13 0 21 -10 25 -34 4 -19 13 -39 21 -46
12 -10 15 -46 15 -193 0 -99 2 -178 5 -175 3 2 18 66 34 142 l29 137 -29 34
c-28 31 -29 36 -16 57 18 29 31 91 17 83 -6 -3 -10 -14 -10 -23 -1 -9 -6 -27
-14 -40 -15 -28 -30 -15 -40 34 -5 23 -14 33 -32 37 -13 2 -24 0 -24 -4z"/>
</g>
</svg>
